<svg id="svg" version="1.1" xmlns="http://www.w3.org/2000/svg" xmlns:xlink="http://www.w3.org/1999/xlink" width="400" height="400" viewBox="0, 0, 400,400"><g id="svgg"><path id="path0" d="M134.766 105.859 L 134.766 117.578 158.398 117.578 L 182.031 117.578 182.031 196.484 L 182.031 275.391 158.398 275.391 L 134.766 275.391 134.766 287.305 L 134.766 299.219 196.191 299.219 L 257.617 299.219 257.617 287.305 L 257.617 275.391 233.984 275.391 L 210.352 275.391 210.352 196.484 L 210.352 117.578 233.984 117.578 L 257.617 117.578 257.617 105.859 L 257.617 94.141 196.191 94.141 L 134.766 94.141 134.766 105.859 " stroke="none" fill="#fcfcfc" fill-rule="evenodd"></path><path id="path1" d="M0.000 200.000 L 0.000 400.000 200.000 400.000 L 400.000 400.000 400.000 200.000 L 400.000 0.000 200.000 0.000 L 0.000 0.000 0.000 200.000 M257.617 105.859 L 257.617 117.578 233.984 117.578 L 210.352 117.578 210.352 196.484 L 210.352 275.391 233.984 275.391 L 257.617 275.391 257.617 287.305 L 257.617 299.219 196.191 299.219 L 134.766 299.219 134.766 287.305 L 134.766 275.391 158.398 275.391 L 182.031 275.391 182.031 196.484 L 182.031 117.578 158.398 117.578 L 134.766 117.578 134.766 105.859 L 134.766 94.141 196.191 94.141 L 257.617 94.141 257.617 105.859 " stroke="none" fill="#040404" fill-rule="evenodd"></path><path id="path2" d="" stroke="none" fill="#c010080" fill-rule="evenodd"></path><path id="path3" d="" stroke="none" fill="#408480" fill-rule="evenodd"></path><path id="path4" d="" stroke="none" fill="#400484" fill-rule="evenodd"></path></g></svg>